<svg width="31" height="30" viewBox="0 0 31 30" fill="none" xmlns="http://www.w3.org/2000/svg">
<path d="M15.0283 2.8125C11.796 2.8125 8.69606 4.09654 6.41046 6.38214C4.12486 8.66774 2.84082 11.7677 2.84082 15C2.84082 18.2323 4.12486 21.3323 6.41046 23.6179C8.69606 25.9035 11.796 27.1875 15.0283 27.1875C17.549 27.1875 20.1963 26.4281 22.11 25.1566C22.2125 25.0885 22.3007 25.0008 22.3693 24.8985C22.438 24.7963 22.4859 24.6815 22.5102 24.5608C22.5345 24.4401 22.5348 24.3157 22.5111 24.1949C22.4874 24.074 22.44 23.959 22.3719 23.8564C22.3037 23.7539 22.216 23.6657 22.1138 23.5971C22.0115 23.5284 21.8968 23.4805 21.776 23.4562C21.6553 23.4319 21.5309 23.4316 21.4101 23.4553C21.2892 23.4791 21.1742 23.5264 21.0717 23.5945C19.4814 24.6539 17.1623 25.3125 15.0283 25.3125C12.9887 25.3125 10.9949 24.7077 9.299 23.5745C7.60312 22.4414 6.28134 20.8308 5.50081 18.9464C4.72028 17.0621 4.51606 14.9886 4.91397 12.9881C5.31188 10.9877 6.29405 9.15019 7.73628 7.70796C9.17851 6.26573 11.016 5.28356 13.0165 4.88565C15.0169 4.48774 17.0904 4.69196 18.9747 5.47249C20.8591 6.25302 22.4697 7.5748 23.6028 9.27068C24.736 10.9666 25.3408 12.9604 25.3408 15C25.3408 18.0996 24.0658 18.75 22.9971 18.75C21.9283 18.75 20.6533 18.0996 20.6533 15V10.3125C20.6533 10.0639 20.5545 9.8254 20.3787 9.64959C20.2029 9.47377 19.9645 9.375 19.7158 9.375C19.4672 9.375 19.2287 9.47377 19.0529 9.64959C18.8771 9.8254 18.7783 10.0639 18.7783 10.3125V10.8117C17.937 10.0574 16.888 9.57398 15.768 9.42438C14.648 9.27479 13.5089 9.46597 12.4991 9.97302C11.4894 10.4801 10.6557 11.2795 10.1067 12.2671C9.55778 13.2548 9.31901 14.3849 9.42151 15.5101C9.52401 16.6354 9.96305 17.7038 10.6814 18.576C11.3998 19.4482 12.3642 20.0838 13.4489 20.4001C14.5337 20.7163 15.6886 20.6985 16.7632 20.349C17.8377 19.9995 18.7821 19.3345 19.4732 18.4406C20.1764 19.8469 21.3893 20.625 22.9971 20.625C25.6385 20.625 27.2158 18.5227 27.2158 15C27.2124 11.7687 25.9273 8.67076 23.6424 6.3859C21.3576 4.10104 18.2596 2.81591 15.0283 2.8125ZM15.0283 18.75C14.2866 18.75 13.5616 18.5301 12.9449 18.118C12.3282 17.706 11.8476 17.1203 11.5638 16.4351C11.2799 15.7498 11.2057 14.9958 11.3504 14.2684C11.4951 13.541 11.8522 12.8728 12.3767 12.3483C12.9011 11.8239 13.5693 11.4667 14.2967 11.3221C15.0242 11.1774 15.7782 11.2516 16.4634 11.5355C17.1486 11.8193 17.7343 12.2999 18.1463 12.9166C18.5584 13.5333 18.7783 14.2583 18.7783 15C18.7783 15.9946 18.3832 16.9484 17.68 17.6516C16.9767 18.3549 16.0229 18.75 15.0283 18.75Z" fill="#868686"/>
</svg>
