<svg width="31" height="30" viewBox="0 0 31 30" fill="none" xmlns="http://www.w3.org/2000/svg">
<path fill-rule="evenodd" clip-rule="evenodd" d="M3.01771 27.7854C2.9256 27.7854 2.7414 27.7854 2.6493 27.6902C2.28089 27.4997 2.09668 27.2139 2.09668 26.8328V10.6388C2.09668 5.8758 5.78079 2.06543 10.3859 2.06543H19.5962C24.2013 2.06543 27.8855 5.8758 27.8855 10.6388V14.4491C27.8855 19.2121 24.2013 23.0225 19.5962 23.0225H15.2674C11.0306 23.0225 6.88602 24.6419 3.66243 27.5949C3.47822 27.6902 3.20191 27.7854 3.01771 27.7854ZM4.09668 10.6388V24.6665C7.36963 22.3055 11.2747 21.0225 15.2674 21.0225H19.5962C23.0338 21.0225 25.8855 18.1716 25.8855 14.4491V10.6388C25.8855 6.91631 23.0338 4.06543 19.5962 4.06543H10.3859C6.94835 4.06543 4.09668 6.91631 4.09668 10.6388ZM10.5507 13.9998C11.3746 13.9998 12.0425 13.3319 12.0425 12.508C12.0425 11.6841 11.3746 11.0161 10.5507 11.0161C9.72678 11.0161 9.05887 11.6841 9.05887 12.508C9.05887 13.3319 9.72678 13.9998 10.5507 13.9998ZM17.0146 12.508C17.0146 13.3319 16.3467 13.9998 15.5228 13.9998C14.6989 13.9998 14.031 13.3319 14.031 12.508C14.031 11.6841 14.6989 11.0161 15.5228 11.0161C16.3467 11.0161 17.0146 11.6841 17.0146 12.508ZM20.4959 13.9998C21.3198 13.9998 21.9877 13.3319 21.9877 12.508C21.9877 11.6841 21.3198 11.0161 20.4959 11.0161C19.672 11.0161 19.0041 11.6841 19.0041 12.508C19.0041 13.3319 19.672 13.9998 20.4959 13.9998Z" fill="#868686"/>
</svg>
